<svg xmlns="http://www.w3.org/2000/svg" viewBox="0 0 512 512" role="img" aria-label="Save Editor">
  <defs>
    <radialGradient id="ember" cx="50%" cy="42%" r="62%">
      <stop offset="0" stop-color="#ffdf8a"/>
      <stop offset="0.32" stop-color="#d56a24"/>
      <stop offset="0.68" stop-color="#651a18"/>
      <stop offset="1" stop-color="#171015"/>
    </radialGradient>
    <linearGradient id="steel" x1="0" x2="1" y1="0" y2="1">
      <stop offset="0" stop-color="#f0d18a"/>
      <stop offset="0.22" stop-color="#8f6e3a"/>
      <stop offset="0.5" stop-color="#efe4c5"/>
      <stop offset="0.76" stop-color="#7c5a2f"/>
      <stop offset="1" stop-color="#2a1a15"/>
    </linearGradient>
    <linearGradient id="edge" x1="0" x2="0" y1="0" y2="1">
      <stop offset="0" stop-color="#f8c667"/>
      <stop offset="1" stop-color="#5a1513"/>
    </linearGradient>
    <filter id="shadow" x="-20%" y="-20%" width="140%" height="140%">
      <feDropShadow dx="0" dy="12" stdDeviation="12" flood-color="#000" flood-opacity="0.55"/>
    </filter>
  </defs>

  <rect width="512" height="512" rx="96" fill="#120d12"/>
  <circle cx="256" cy="250" r="194" fill="url(#ember)"/>
  <circle cx="256" cy="250" r="204" fill="none" stroke="#321417" stroke-width="18"/>
  <circle cx="256" cy="250" r="178" fill="none" stroke="#e58f3a" stroke-opacity="0.32" stroke-width="5"/>

  <g filter="url(#shadow)">
    <path d="M122 168c36-49 86-76 134-76s98 27 134 76c-37-18-72-24-104-17l44 30c-47 8-67 31-74 64-7-33-27-56-74-64l44-30c-32-7-67-1-104 17Z"
          fill="#160b10" stroke="url(#edge)" stroke-width="10" stroke-linejoin="round"/>
    <path d="M175 323c23 47 52 74 81 92 29-18 58-45 81-92 16-33 22-72 18-116-30 10-61 14-99 14s-69-4-99-14c-4 44 2 83 18 116Z"
          fill="#21141a" stroke="url(#edge)" stroke-width="12" stroke-linejoin="round"/>
    <path d="M256 130 225 299h62L256 130Z" fill="url(#steel)" stroke="#2b1715" stroke-width="8" stroke-linejoin="round"/>
    <path d="M203 301h106l-18 30h-70l-18-30Z" fill="#6f281c" stroke="#e0a24e" stroke-width="7" stroke-linejoin="round"/>
    <path d="M236 331h40l12 68-32 28-32-28 12-68Z" fill="#241016" stroke="#bd783a" stroke-width="8" stroke-linejoin="round"/>
    <path d="M216 194c-29 12-49 36-58 72M296 194c29 12 49 36 58 72"
          fill="none" stroke="#f0b052" stroke-opacity="0.36" stroke-width="10" stroke-linecap="round"/>
  </g>
</svg>
